HIERARCHY
ROOT Hips
{
	OFFSET 0.000000 0.000000 0.000000
	CHANNELS 6 Xposition Yposition Zposition Xrotation Yrotation Zrotation
	JOINT LeftUpLeg_virtual
	{
		OFFSET 0.000000 0.000000 0.000000
		CHANNELS 3 Xrotation Yrotation Zrotation
		JOINT LeftUpLeg
		{
			OFFSET 15.427100 -6.655098 0.678600
			CHANNELS 3 Xrotation Yrotation Zrotation
			JOINT LeftLeg
			{
				OFFSET 4.081073 -39.591068 13.024000
				CHANNELS 3 Xrotation Yrotation Zrotation
				JOINT LeftFoot
				{
					OFFSET -4.081074 -37.707932 -15.979700
					CHANNELS 3 Xrotation Yrotation Zrotation
					JOINT LeftToeBase
					{
						OFFSET 5.346399 -15.068900 20.645000
						CHANNELS 3 Xrotation Yrotation Zrotation
						JOINT LeftToe_End
						{
							OFFSET 2.754700 0.931300 11.300900
							CHANNELS 3 Xrotation Yrotation Zrotation
							End Site
							{
								OFFSET 0 0 0
							}
						}
					}
				}
			}
		}
	}
	JOINT RightUpLeg_virtual
	{
		OFFSET 0.000000 0.000000 0.000000
		CHANNELS 3 Xrotation Yrotation Zrotation
		JOINT RightUpLeg
		{
			OFFSET -15.569500 -6.655098 0.678600
			CHANNELS 3 Xrotation Yrotation Zrotation
			JOINT RightLeg
			{
				OFFSET -4.081825 -39.591045 13.023800
				CHANNELS 3 Xrotation Yrotation Zrotation
				JOINT RightFoot
				{
					OFFSET 4.081824 -37.707954 -15.979600
					CHANNELS 3 Xrotation Yrotation Zrotation
					JOINT RightToeBase
					{
						OFFSET -5.346400 -15.068900 20.645000
						CHANNELS 3 Xrotation Yrotation Zrotation
						JOINT RightToe_End
						{
							OFFSET -2.754700 0.931300 11.300900
							CHANNELS 3 Xrotation Yrotation Zrotation
							End Site
							{
								OFFSET 0 0 0
							}
						}
					}
				}
			}
		}
	}
	JOINT Spine_virtual
	{
		OFFSET 0.000000 0.000000 0.000000
		CHANNELS 3 Xrotation Yrotation Zrotation
		JOINT Spine
		{
			OFFSET -0.279200 12.230698 -2.892100
			CHANNELS 3 Xrotation Yrotation Zrotation
			JOINT Spine1
			{
				OFFSET -0.232667 10.192268 -1.242267
				CHANNELS 3 Xrotation Yrotation Zrotation
				JOINT Spine1_split
				{
					OFFSET -0.232667 10.192268 -1.242267
					CHANNELS 3 Xrotation Yrotation Zrotation
					JOINT Spine2
					{
						OFFSET -0.232667 10.192268 -1.242267
						CHANNELS 3 Xrotation Yrotation Zrotation
						JOINT Neck_virtual
						{
							OFFSET 0.000000 0.000000 0.000000
							CHANNELS 3 Xrotation Yrotation Zrotation
							JOINT Neck
							{
								OFFSET -0.418800 17.814194 8.416900
								CHANNELS 3 Xrotation Yrotation Zrotation
								JOINT Head
								{
									OFFSET 0.000000 7.031097 3.806800
									CHANNELS 3 Xrotation Yrotation Zrotation
									JOINT HeadTop_End
									{
										OFFSET 0.000000 24.646606 12.978600
										CHANNELS 3 Xrotation Yrotation Zrotation
										End Site
										{
											OFFSET 0 0 0
										}
									}
								}
							}
						}
						JOINT LeftShoulder_virtual
						{
							OFFSET 0.000000 0.000000 0.000000
							CHANNELS 3 Xrotation Yrotation Zrotation
							JOINT LeftShoulder
							{
								OFFSET 8.476499 7.247704 -3.868750
								CHANNELS 3 Xrotation Yrotation Zrotation
								JOINT LeftShoulder_split
								{
									OFFSET 8.476499 7.247704 -3.868750
									CHANNELS 3 Xrotation Yrotation Zrotation
									JOINT LeftArm
									{
										OFFSET 9.308998 -2.777710 0.208600
										CHANNELS 3 Xrotation Yrotation Zrotation
										JOINT LeftForeArm
										{
											OFFSET 29.972298 0.000000 0.000000
											CHANNELS 3 Xrotation Yrotation Zrotation
											JOINT LeftHand
											{
												OFFSET 26.026505 0.000000 0.000000
												CHANNELS 3 Xrotation Yrotation Zrotation
												End Site
												{
													OFFSET 0 0 0
												}
											}
										}
									}
								}
							}
						}
						JOINT RightShoulder_virtual
						{
							OFFSET 0.000000 0.000000 0.000000
							CHANNELS 3 Xrotation Yrotation Zrotation
							JOINT RightShoulder
							{
								OFFSET -7.570500 7.247704 -3.868750
								CHANNELS 3 Xrotation Yrotation Zrotation
								JOINT RightShoulder_split
								{
									OFFSET -7.570500 7.247704 -3.868750
									CHANNELS 3 Xrotation Yrotation Zrotation
									JOINT RightArm
									{
										OFFSET -9.308998 -2.777710 0.208500
										CHANNELS 3 Xrotation Yrotation Zrotation
										JOINT RightForeArm
										{
											OFFSET -29.972300 0.000000 0.000000
											CHANNELS 3 Xrotation Yrotation Zrotation
											JOINT RightHand
											{
												OFFSET -26.026505 0.000000 0.000000
												CHANNELS 3 Xrotation Yrotation Zrotation
												End Site
												{
													OFFSET 0 0 0
												}
											}
										}
									}
								}
							}
						}
					}
				}
			}
		}
	}
}
MOTION
Frames: 5
Frame Time: 0.03333333
-0.898720 53.603012 8.648964 0.000000 0.000000 0.000000 37.220914 -54.085775 30.321590 -74.688993 -10.012233 31.524533 85.952214 -15.663333 -1.177644 -28.902383 3.292900 -15.970970 -1.836412 -0.000611 -0.000027 0.000000 0.000000 0.000000 37.220914 -54.085775 30.321590 -72.976801 1.388104 -38.989715 86.362257 12.886123 4.727985 -29.243308 -4.891201 14.395652 0.951645 0.013533 -0.060996 0.000000 0.000000 0.000000 37.220914 -54.085775 30.321590 8.803225 -2.192552 -3.103748 3.265674 -3.494252 -2.572572 0.000000 0.000000 0.000000 0.000000 0.000000 0.000000 3.249623 -3.433803 -2.640589 -6.044926 16.474027 -5.713686 -39.527736 37.445836 9.871835 0.000000 0.000000 0.000000 3.249623 -3.433803 -2.640589 5.075857 -7.804279 -6.702655 0.000000 0.000000 0.000000 -62.677805 3.445338 -22.584335 20.881941 -30.367769 16.998454 0.000000 0.000000 0.000000 3.249623 -3.433803 -2.640589 5.114732 8.674753 15.430164 0.000000 0.000000 0.000000 -11.369378 0.763080 49.913598 -17.712887 36.414754 7.487013 0.000000 0.000000 0.000000 
-0.746386 49.891922 8.183334 0.000000 0.000000 0.000000 38.759674 -53.662706 31.308829 -78.905351 -14.005636 33.067879 90.138703 -17.358453 -1.605802 -28.766479 3.603575 -17.179698 -1.836412 -0.000612 -0.000027 0.000000 0.000000 0.000000 38.759674 -53.662706 31.308829 -77.500312 3.927747 -40.605263 91.053457 15.035408 5.314716 -29.493040 -4.714159 13.663556 0.710717 0.013963 -0.061731 0.000000 0.000000 0.000000 38.759674 -53.662706 31.308829 8.229801 -2.083995 -2.994554 3.592001 -3.361504 -2.519238 0.000000 0.000000 0.000000 0.000000 0.000000 0.000000 3.576395 -3.306021 -2.583296 -4.843159 17.213130 -6.645902 -39.838718 36.524379 9.074948 0.000000 0.000000 0.000000 3.576395 -3.306021 -2.583296 5.547271 -8.009821 -6.640982 0.000000 0.000000 0.000000 -64.034267 1.869229 -22.502835 21.515663 -29.366825 16.956505 0.000000 0.000000 0.000000 3.576395 -3.306021 -2.583296 5.583205 9.006417 15.903916 0.000000 0.000000 0.000000 -10.769843 1.892036 48.290841 -18.711341 38.477232 8.552186 0.000000 0.000000 0.000000 
-0.656115 46.346077 7.792294 0.000000 0.000000 0.000000 39.887810 -53.382846 32.105707 -82.629935 -17.991577 34.618312 93.799767 -19.256786 -2.074946 -28.255135 3.865783 -18.490493 -1.836412 -0.000612 -0.000027 0.000000 0.000000 0.000000 39.887810 -53.382846 32.105707 -81.953439 6.978197 -42.244976 95.295250 17.554273 5.834976 -28.500564 -4.798543 13.266897 0.115795 0.014816 -0.062313 0.000000 0.000000 0.000000 39.887810 -53.382846 32.105707 7.647327 -1.956410 -2.904638 3.920441 -3.180464 -2.492628 0.000000 0.000000 0.000000 0.000000 0.000000 0.000000 3.905912 -3.129790 -2.551260 -3.463313 17.929206 -7.697891 -39.698142 35.578599 8.116830 0.000000 0.000000 0.000000 3.905912 -3.129790 -2.551260 5.951874 -8.061986 -6.968057 0.000000 0.000000 0.000000 -65.208560 0.226347 -22.718874 22.758013 -28.220327 17.107334 0.000000 0.000000 0.000000 3.905912 -3.129790 -2.551260 6.023425 9.139924 16.277680 0.000000 0.000000 0.000000 -9.808073 2.869009 46.606356 -19.217627 39.891409 9.114114 0.000000 0.000000 0.000000 
-0.674057 43.056587 7.502522 0.000000 0.000000 0.000000 40.943716 -53.234088 32.931720 -85.787511 -21.940226 36.307657 96.893146 -21.296876 -2.570940 -27.543744 4.118350 -19.925793 -1.836412 -0.000611 -0.000027 0.000000 0.000000 0.000000 40.943716 -53.234088 32.931720 -86.342539 10.739735 -43.461300 99.189967 19.689496 6.278194 -26.394182 -4.900319 13.078135 -0.788806 0.015995 -0.062728 0.000000 0.000000 0.000000 40.943716 -53.234088 32.931720 7.032968 -1.834639 -2.839830 4.215038 -2.970469 -2.509426 0.000000 0.000000 0.000000 0.000000 0.000000 0.000000 4.201919 -2.924073 -2.561445 -2.114966 18.744300 -8.721079 -39.204237 34.691415 7.182724 0.000000 0.000000 0.000000 4.201919 -2.924073 -2.561445 6.284078 -7.922278 -6.979367 0.000000 0.000000 0.000000 -66.176924 -0.958014 -23.215150 24.010622 -26.960177 17.250415 0.000000 0.000000 0.000000 4.201919 -2.924073 -2.561445 6.382117 9.235165 16.656501 0.000000 0.000000 0.000000 -8.533650 3.718803 44.763673 -19.327571 40.249577 9.261550 0.000000 0.000000 0.000000 
-0.815655 40.187798 7.279430 0.000000 0.000000 0.000000 41.869449 -53.154830 33.646612 -88.342370 -25.666121 38.110700 99.301819 -23.361047 -3.018734 -26.642596 4.277111 -21.407239 -1.836412 -0.000612 -0.000028 0.000000 0.000000 0.000000 41.869449 -53.154830 33.646612 -90.330037 14.638788 -44.340963 102.525108 21.705776 6.698008 -24.017843 -5.215664 13.206268 -1.935103 0.017106 -0.062981 0.000000 0.000000 0.000000 41.869449 -53.154830 33.646612 6.363168 -1.737122 -2.787976 4.432590 -2.761267 -2.546493 0.000000 0.000000 0.000000 0.000000 0.000000 0.000000 4.421221 -2.718956 -2.591088 -0.710673 19.560893 -9.602363 -38.279095 33.848314 6.082590 0.000000 0.000000 0.000000 4.421221 -2.718956 -2.591088 6.537871 -7.623674 -7.157073 0.000000 0.000000 0.000000 -66.824747 -2.274208 -23.751556 25.131078 -25.456429 17.107156 0.000000 0.000000 0.000000 4.421221 -2.718956 -2.591088 6.643935 9.613431 17.290337 0.000000 0.000000 0.000000 -7.123562 3.986113 42.502737 -19.158281 39.848696 9.311188 0.000000 0.000000 0.000000 
